# xmcd CD database file
#
# Track frame offsets:
#	150
#	26125
#	46687
#	67225
#	97850
#	120025
#	148800
#	173150
#	188525
#	210375
#	228450
#	258100
#	273675
#	299850
#	317362
#
# Disc length: 4493 seconds
#
# Revision: 0
# Processed by: cddbd v1.5.2PL0 Copyright (c) Steve Scherf et al.
# Submitted via: CDex 1.51
#
DISCID=d4118b0f
DTITLE=### - Sony Music's Jazz Hightlights
DYEAR=1994
DGENRE=Jazz
TTITLE0=Aziza Mustafa Zadeh - Marriage Suite
TTITLE1=Wynton Marsalis - Professional
TTITLE2=Terence Blanchard - I cover the waterfront
TTITLE3=David Sanchez - Ebony
TTITLE4=Ellis Marsalis - Whistle stop
TTITLE5=Buckshot le Fonque - Breakfast at Denny's
TTITLE6=Nnenna Freelon - Gaia's Garden
TTITLE7=Stanley Clarke - Minute by minute
TTITLE8=Harry Connick Jr. - (I could only) whisper your name
TTITLE9=Groover Washington Jr. - Please send me someone to love
TTITLE10=Blacknote - No introduction
TTITLE11=Michel Camilo - Tropical Jam
TTITLE12=Horace Silver - Pencil packin' papa
TTITLE13=Bobby Watson - He's more good than bad
TTITLE14=Jazz con Bazz - Raw and uncut jazz (Part 1)
EXTD=YEAR: 1994
EXTT0=
EXTT1=
EXTT2=
EXTT3=
EXTT4=
EXTT5=
EXTT6=
EXTT7=
EXTT8=
EXTT9=
EXTT10=
EXTT11=
EXTT12=
EXTT13=
EXTT14=
PLAYORDER=
